<svg width="117" height="20" viewBox="0 0 117 20" fill="none" xmlns="http://www.w3.org/2000/svg">
<g id="Logo">
<path id="Logomark" fill-rule="evenodd" clip-rule="evenodd" d="M7.4468 2.55319C7.4468 1.7601 7.4468 1.36355 7.57637 1.05075C7.74913 0.633683 8.08049 0.302322 8.49756 0.129567C8.81036 0 9.2069 0 10 0C10.7931 0 11.1896 0 11.5024 0.129567C11.9195 0.302322 12.2509 0.633683 12.4236 1.05075C12.5532 1.36355 12.5532 1.7601 12.5532 2.55319V4.04256C12.5532 4.83565 12.5532 5.23219 12.4236 5.54499C12.2509 5.96206 11.9195 6.29342 11.5024 6.46618C11.1896 6.59575 10.7931 6.59575 10 6.59575C9.2069 6.59575 8.81036 6.59575 8.49756 6.46618C8.08049 6.29342 7.74913 5.96206 7.57637 5.54499C7.4468 5.23219 7.4468 4.83565 7.4468 4.04255V2.55319ZM17.4468 7.44681C18.2399 7.44681 18.6364 7.44681 18.9492 7.57637C19.3663 7.74913 19.6977 8.08049 19.8704 8.49756C20 8.81036 20 9.20691 20 10C20 10.7931 20 11.1896 19.8704 11.5024C19.6977 11.9195 19.3663 12.2509 18.9492 12.4236C18.6364 12.5532 18.2399 12.5532 17.4468 12.5532H15.9574C15.1644 12.5532 14.7678 12.5532 14.455 12.4236C14.0379 12.2509 13.7066 11.9195 13.5338 11.5024C13.4043 11.1896 13.4043 10.7931 13.4043 10C13.4043 9.20691 13.4043 8.81036 13.5338 8.49756C13.7066 8.08049 14.0379 7.74913 14.455 7.57637C14.7678 7.44681 15.1644 7.44681 15.9574 7.44681H17.4468ZM7.57637 14.455C7.4468 14.7678 7.4468 15.1644 7.4468 15.9574V17.4468C7.4468 18.2399 7.4468 18.6364 7.57637 18.9492C7.74913 19.3663 8.08049 19.6977 8.49756 19.8704C8.81035 20 9.2069 20 9.99997 20H10H10C10.7931 20 11.1896 20 11.5024 19.8704C11.9195 19.6977 12.2509 19.3663 12.4236 18.9492C12.5532 18.6364 12.5532 18.2399 12.5532 17.4468V15.9574C12.5532 15.1644 12.5532 14.7678 12.4236 14.455C12.2509 14.0379 11.9195 13.7066 11.5024 13.5338C11.1896 13.4043 10.7931 13.4043 10 13.4043C9.2069 13.4043 8.81036 13.4043 8.49756 13.5338C8.08049 13.7066 7.74913 14.0379 7.57637 14.455ZM4.04256 7.44681C4.83565 7.44681 5.23219 7.44681 5.54499 7.57637C5.96206 7.74913 6.29342 8.08049 6.46618 8.49756C6.59575 8.81036 6.59575 9.20691 6.59575 10C6.59575 10.7931 6.59575 11.1896 6.46618 11.5024C6.29342 11.9195 5.96206 12.2509 5.54499 12.4236C5.23219 12.5532 4.83565 12.5532 4.04255 12.5532H2.55319C1.7601 12.5532 1.36355 12.5532 1.05075 12.4236C0.633682 12.2509 0.302322 11.9195 0.129566 11.5024C-2.61679e-07 11.1896 -3.46311e-08 10.7931 0 10C3.47032e-08 9.20691 -1.55069e-07 8.81036 0.129566 8.49756C0.302322 8.08049 0.633683 7.74913 1.05075 7.57637C1.36355 7.44681 1.7601 7.44681 2.55319 7.44681H4.04256ZM7.57637 8.49756C7.4468 8.81036 7.4468 9.20691 7.4468 10C7.4468 10.7931 7.4468 11.1896 7.57637 11.5024C7.74913 11.9195 8.08049 12.2509 8.49756 12.4236C8.81036 12.5532 9.2069 12.5532 10 12.5532C10.7931 12.5532 11.1896 12.5532 11.5024 12.4236C11.9195 12.2509 12.2509 11.9195 12.4236 11.5024C12.5532 11.1896 12.5532 10.7931 12.5532 10C12.5532 9.20691 12.5532 8.81036 12.4236 8.49756C12.2509 8.08049 11.9195 7.74913 11.5024 7.57637C11.1896 7.44681 10.7931 7.44681 10 7.44681C9.2069 7.44681 8.81036 7.44681 8.49756 7.57637C8.08049 7.74913 7.74913 8.08049 7.57637 8.49756ZM13.4043 4.04255C13.4043 3.24946 13.4043 2.85291 13.5338 2.54011C13.7066 2.12304 14.0379 1.79168 14.455 1.61892C14.7678 1.48936 15.1644 1.48936 15.9574 1.48936C16.7505 1.48936 17.1471 1.48936 17.4599 1.61892C17.877 1.79168 18.2083 2.12304 18.3811 2.54011C18.5106 2.85291 18.5106 3.24946 18.5106 4.04255C18.5106 4.83564 18.5106 5.23219 18.3811 5.54499C18.2083 5.96206 17.877 6.29342 17.4599 6.46617C17.1471 6.59574 16.7505 6.59574 15.9574 6.59574C15.1644 6.59574 14.7678 6.59574 14.455 6.46617C14.0379 6.29342 13.7066 5.96206 13.5338 5.54499C13.4043 5.23219 13.4043 4.83564 13.4043 4.04255ZM1.61892 2.54011C1.48936 2.85291 1.48936 3.24946 1.48936 4.04255C1.48936 4.83564 1.48936 5.23219 1.61892 5.54499C1.79168 5.96206 2.12304 6.29342 2.54011 6.46617C2.85291 6.59574 3.24945 6.59574 4.04255 6.59574C4.83564 6.59574 5.23218 6.59574 5.54499 6.46617C5.96206 6.29342 6.29342 5.96206 6.46617 5.54499C6.59574 5.23219 6.59574 4.83564 6.59574 4.04255C6.59574 3.24946 6.59574 2.85291 6.46617 2.54011C6.29342 2.12304 5.96206 1.79168 5.54499 1.61892C5.23218 1.48936 4.83564 1.48936 4.04255 1.48936C3.24945 1.48936 2.85291 1.48936 2.54011 1.61892C2.12304 1.79168 1.79168 2.12304 1.61892 2.54011ZM13.4043 15.9574C13.4043 15.1644 13.4043 14.7678 13.5338 14.455C13.7066 14.0379 14.0379 13.7066 14.455 13.5338C14.7678 13.4043 15.1644 13.4043 15.9574 13.4043C16.7505 13.4043 17.1471 13.4043 17.4599 13.5338C17.877 13.7066 18.2083 14.0379 18.3811 14.455C18.5106 14.7678 18.5106 15.1644 18.5106 15.9574C18.5106 16.7505 18.5106 17.1471 18.3811 17.4599C18.2083 17.877 17.877 18.2083 17.4599 18.3811C17.1471 18.5106 16.7505 18.5106 15.9574 18.5106C15.1644 18.5106 14.7678 18.5106 14.455 18.3811C14.0379 18.2083 13.7066 17.877 13.5338 17.4599C13.4043 17.1471 13.4043 16.7505 13.4043 15.9574ZM1.61892 14.455C1.48936 14.7678 1.48936 15.1644 1.48936 15.9574C1.48936 16.7505 1.48936 17.1471 1.61892 17.4599C1.79168 17.877 2.12304 18.2083 2.54011 18.3811C2.85291 18.5106 3.24945 18.5106 4.04255 18.5106C4.83564 18.5106 5.23218 18.5106 5.54499 18.3811C5.96206 18.2083 6.29342 17.877 6.46617 17.4599C6.59574 17.1471 6.59574 16.7505 6.59574 15.9574C6.59574 15.1644 6.59574 14.7678 6.46617 14.455C6.29342 14.0379 5.96206 13.7066 5.54499 13.5338C5.23218 13.4043 4.83564 13.4043 4.04255 13.4043C3.24945 13.4043 2.85291 13.4043 2.54011 13.5338C2.12304 13.7066 1.79168 14.0379 1.61892 14.455Z" fill="#0576F0"/>
<path id="Wordmark" fill-rule="evenodd" clip-rule="evenodd" d="M69.8864 2.64949C70.1996 2.93762 70.5879 3.08168 71.0514 3.08168C71.5149 3.08168 71.897 2.93762 72.1976 2.64949C72.5108 2.34884 72.6674 1.97929 72.6674 1.54084C72.6674 1.10239 72.5108 0.739102 72.1976 0.450978C71.897 0.150326 71.5149 0 71.0514 0C70.5879 0 70.1996 0.150326 69.8864 0.450978C69.5857 0.739102 69.4354 1.10239 69.4354 1.54084C69.4354 1.97929 69.5857 2.34884 69.8864 2.64949ZM72.348 4.32187H69.7173V14.7319H72.348V4.32187ZM74.2706 9.5269C74.2706 8.44957 74.4898 7.51003 74.9283 6.70829C75.3667 5.89403 75.9743 5.26767 76.751 4.82922C77.5277 4.37824 78.4171 4.15275 79.4193 4.15275C80.7096 4.15275 81.7744 4.47846 82.6137 5.12987C83.4656 5.76876 84.0355 6.67071 84.3237 7.83574H81.4863C81.3359 7.38476 81.0791 7.034 80.7158 6.78346C80.3651 6.52039 79.9266 6.38885 79.4005 6.38885C78.6489 6.38885 78.0538 6.66445 77.6154 7.21564C77.1769 7.75431 76.9577 8.52473 76.9577 9.5269C76.9577 10.5165 77.1769 11.287 77.6154 11.8382C78.0538 12.3768 78.6489 12.6462 79.4005 12.6462C80.4653 12.6462 81.1606 12.1701 81.4863 11.2181H84.3237C84.0355 12.3455 83.4656 13.2412 82.6137 13.9051C81.7619 14.5691 80.697 14.9011 79.4193 14.9011C78.4171 14.9011 77.5277 14.6818 76.751 14.2434C75.9743 13.7924 75.3667 13.166 74.9283 12.3643C74.4898 11.55 74.2706 10.6042 74.2706 9.5269ZM86.1945 6.6895C85.7811 7.50377 85.5744 8.43704 85.5744 9.48932C85.5744 10.5541 85.7811 11.4999 86.1945 12.3267C86.6204 13.141 87.1904 13.7736 87.9045 14.2246C88.6311 14.6756 89.4328 14.9011 90.3097 14.9011C91.0864 14.9011 91.7691 14.7445 92.3579 14.4313C92.9592 14.1056 93.429 13.6984 93.7672 13.2099V14.7319H96.4167V4.32187H93.7672V5.80634C93.4164 5.33031 92.9467 4.9357 92.3579 4.62252C91.7816 4.30934 91.1052 4.15275 90.3285 4.15275C89.4391 4.15275 88.6311 4.37198 87.9045 4.81043C87.1904 5.24888 86.6204 5.87524 86.1945 6.6895ZM93.3914 7.89211C93.6419 8.34309 93.7672 8.88802 93.7672 9.5269C93.7672 10.1658 93.6419 10.717 93.3914 11.1805C93.1408 11.6315 92.8026 11.9822 92.3767 12.2328C91.9508 12.4708 91.4935 12.5898 91.005 12.5898C90.5289 12.5898 90.0779 12.4645 89.652 12.214C89.2386 11.9634 88.9004 11.6064 88.6373 11.1429C88.3868 10.6669 88.2615 10.1157 88.2615 9.48932C88.2615 8.86296 88.3868 8.3243 88.6373 7.87332C88.9004 7.40981 89.2386 7.05905 89.652 6.82104C90.0654 6.58302 90.5164 6.46401 91.005 6.46401C91.4935 6.46401 91.9508 6.58928 92.3767 6.83983C92.8026 7.07784 93.1408 7.4286 93.3914 7.89211ZM116.26 9.30141C116.26 9.67723 116.235 10.0155 116.185 10.3161H108.575C108.638 11.0677 108.901 11.6565 109.364 12.0824C109.828 12.5084 110.398 12.7213 111.074 12.7213C112.051 12.7213 112.746 12.3017 113.16 11.4623H115.997C115.697 12.4645 115.12 13.2913 114.268 13.9427C113.417 14.5816 112.371 14.9011 111.13 14.9011C110.128 14.9011 109.226 14.6818 108.425 14.2434C107.635 13.7924 107.015 13.1598 106.564 12.3455C106.126 11.5312 105.907 10.5917 105.907 9.5269C105.907 8.44957 106.126 7.50377 106.564 6.6895C107.003 5.87524 107.617 5.24888 108.406 4.81043C109.195 4.37198 110.103 4.15275 111.13 4.15275C112.12 4.15275 113.003 4.36571 113.78 4.79164C114.569 5.21756 115.177 5.82513 115.603 6.61434C116.041 7.39102 116.26 8.28672 116.26 9.30141ZM113.536 8.54979C113.523 7.87332 113.279 7.33465 112.803 6.93378C112.327 6.52039 111.744 6.31369 111.055 6.31369C110.404 6.31369 109.853 6.51412 109.402 6.91499C108.963 7.30333 108.694 7.84826 108.594 8.54979H113.536ZM101.617 5.93788C101.955 5.38668 102.393 4.9545 102.932 4.64132C103.483 4.32814 104.11 4.17155 104.811 4.17155V6.93379H104.116C103.289 6.93379 102.663 7.12796 102.237 7.5163C101.823 7.90464 101.617 8.58111 101.617 9.5457V14.7319H98.986V4.32188H101.617V5.93788ZM65.4951 6.48282V11.5187C65.4951 11.8695 65.5765 12.1263 65.7393 12.2892C65.9147 12.4395 66.2028 12.5146 66.6037 12.5146H67.8251V14.7319H66.1715C63.9542 14.7319 62.8456 13.6546 62.8456 11.4999V6.48282H61.6054V4.32188H62.8456V1.74755H65.4951V4.32188H67.8251V6.48282H65.4951ZM58.7843 5.35537C58.0201 4.56616 57.0179 4.17155 55.7777 4.17155C55.1263 4.17155 54.525 4.30309 53.9738 4.56616C53.4352 4.8167 52.9905 5.16746 52.6397 5.61844V4.32188H50.009V14.7319H52.6397V8.98198C52.6397 8.15519 52.8464 7.52256 53.2598 7.08411C53.6857 6.63314 54.262 6.40765 54.9885 6.40765C55.7026 6.40765 56.2663 6.63314 56.6797 7.08411C57.0931 7.52256 57.2998 8.15519 57.2998 8.98198V14.7319H59.9305V8.62495C59.9305 7.22191 59.5484 6.13205 58.7843 5.35537ZM48.0888 9.30141C48.0888 9.67723 48.0638 10.0155 48.0137 10.3161H40.4034C40.466 11.0677 40.7291 11.6565 41.1926 12.0824C41.6561 12.5084 42.2261 12.7213 42.9026 12.7213C43.8797 12.7213 44.575 12.3017 44.9884 11.4623H47.8258C47.5251 12.4645 46.9489 13.2913 46.097 13.9427C45.2452 14.5816 44.1991 14.9011 42.959 14.9011C41.9568 14.9011 41.0548 14.6818 40.2531 14.2434C39.4639 13.7924 38.8438 13.1598 38.3928 12.3455C37.9544 11.5312 37.7351 10.5917 37.7351 9.5269C37.7351 8.44957 37.9544 7.50377 38.3928 6.6895C38.8313 5.87524 39.4451 5.24888 40.2343 4.81043C41.0235 4.37198 41.9317 4.15275 42.959 4.15275C43.9486 4.15275 44.8318 4.36571 45.6084 4.79164C46.3977 5.21756 47.0052 5.82513 47.4312 6.61434C47.8696 7.39102 48.0888 8.28672 48.0888 9.30141ZM45.3642 8.54979C45.3516 7.87332 45.1074 7.33465 44.6313 6.93378C44.1553 6.52039 43.5728 6.31369 42.8838 6.31369C42.2324 6.31369 41.6812 6.51412 41.2302 6.91499C40.7918 7.30333 40.5224 7.84826 40.4222 8.54979H45.3642ZM25.6201 6.68951C25.2067 7.50378 25 8.43705 25 9.48933C25 10.5541 25.2067 11.4999 25.6201 12.3267C26.046 13.141 26.6223 13.7736 27.3488 14.2246C28.0754 14.6756 28.8772 14.9011 29.7541 14.9011C30.5307 14.9011 31.2135 14.7445 31.8022 14.4313C32.391 14.1181 32.8483 13.7047 33.174 13.1911V14.7319H35.8423V0.826803H33.174V5.76877C32.8107 5.28021 32.3221 4.89187 31.7083 4.60374C31.0945 4.30309 30.4493 4.15276 29.7728 4.15276C28.8834 4.15276 28.0754 4.37199 27.3488 4.81044C26.6223 5.24889 26.046 5.87525 25.6201 6.68951ZM32.8169 7.89212C33.0675 8.3431 33.1928 8.88803 33.1928 9.52691C33.1928 10.1658 33.0675 10.717 32.8169 11.1805C32.5664 11.6315 32.2282 11.9822 31.8022 12.2328C31.3763 12.4708 30.9191 12.5898 30.4305 12.5898C29.9545 12.5898 29.5035 12.4645 29.0776 12.214C28.6642 11.9634 28.326 11.6064 28.0629 11.1429C27.8123 10.6669 27.6871 10.1157 27.6871 9.48933C27.6871 8.86298 27.8123 8.32431 28.0629 7.87333C28.326 7.40982 28.6642 7.05906 29.0776 6.82105C29.491 6.58303 29.942 6.46402 30.4305 6.46402C30.9191 6.46402 31.3763 6.5893 31.8022 6.83984C32.2282 7.07785 32.5664 7.42861 32.8169 7.89212Z" fill="#0576F0"/>
</g>
</svg>
